<?xml version="1.0" encoding="UTF-8" standalone="no"?>
<!-- Created with Inkscape (http://www.inkscape.org/) -->

<svg
   xmlns:dc="http://purl.org/dc/elements/1.1/"
   xmlns:cc="http://creativecommons.org/ns#"
   xmlns:rdf="http://www.w3.org/1999/02/22-rdf-syntax-ns#"
   xmlns:svg="http://www.w3.org/2000/svg"
   xmlns="http://www.w3.org/2000/svg"
   xmlns:sodipodi="http://sodipodi.sourceforge.net/DTD/sodipodi-0.dtd"
   xmlns:inkscape="http://www.inkscape.org/namespaces/inkscape"
   version="1.1"
   id="svg834"
   xml:space="preserve"
   width="1920"
   height="1200"
   viewBox="0 0 1920 1200"
   sodipodi:docname="Piyush Art.ai.svg"
   inkscape:version="0.92.2 (unknown)"><metadata
     id="metadata840"><rdf:RDF><cc:Work
         rdf:about=""><dc:format>image/svg+xml</dc:format><dc:type
           rdf:resource="http://purl.org/dc/dcmitype/StillImage" /><dc:title></dc:title></cc:Work></rdf:RDF></metadata><defs
     id="defs838"><clipPath
       clipPathUnits="userSpaceOnUse"
       id="clipPath852"><path
         d="M 0,900 H 1440 V 0 H 0 Z"
         id="path850"
         inkscape:connector-curvature="0" /></clipPath><clipPath
       clipPathUnits="userSpaceOnUse"
       id="clipPath862"><path
         d="M 0,900 H 1440 V 0 H 0 Z"
         id="path860"
         inkscape:connector-curvature="0" /></clipPath></defs><sodipodi:namedview
     pagecolor="#0379ae"
     bordercolor="#666666"
     borderopacity="1"
     objecttolerance="10"
     gridtolerance="10"
     guidetolerance="10"
     inkscape:pageopacity="0"
     inkscape:pageshadow="2"
     inkscape:window-width="2560"
     inkscape:window-height="1412"
     id="namedview836"
     showgrid="false"
     inkscape:zoom="0.72537371"
     inkscape:cx="581.05844"
     inkscape:cy="587.60023"
     inkscape:window-x="1920"
     inkscape:window-y="0"
     inkscape:window-maximized="1"
     inkscape:current-layer="g842" /><g
     id="g842"
     inkscape:groupmode="layer"
     inkscape:label="Piyush Art"
     transform="matrix(1.3333333,0,0,-1.3333333,0,1200)"><g
       id="g846"><g
         id="g848"
         clip-path="url(#clipPath852)"><path
           d="m 1566.5,-40.5 h -1619 v 985 h 1619 z"
           style="fill:none;stroke:#2e3192;stroke-width:1;stroke-linecap:butt;stroke-linejoin:miter;stroke-miterlimit:10;stroke-dasharray:none;stroke-opacity:1"
           id="path854"
           inkscape:connector-curvature="0" /></g></g><g
       id="g856"><g
         id="g858"
         clip-path="url(#clipPath862)"><g
           id="g864"
           transform="translate(610.25,694.5)"
           style="fill:#34ffff;fill-opacity:1"><path
             d="M 0,0 V -72 H -562.5 V 0 c 0,16.5 13.5,30 30,30 H -30 C -13.5,30 0,16.5 0,0"
             style="fill:#3d3dff;fill-opacity:0.40677965;fill-rule:nonzero;stroke:none;opacity:0.00000001"
             id="path866"
             inkscape:connector-curvature="0" /></g><g
           id="g868"
           transform="translate(679.25,687)"><path
             d="m 0,0 v -450 h -69 v -7.5 c 0,-16.5 -13.5,-30 -30,-30 h -45 v 99 h 73.5 v 30 H -144 v 22.5 h -0.03 c -0.41,5.86 -5.61,10.5 -11.97,10.5 -6.36,0 -11.56,-4.64 -11.97,-10.5 H -168 v -22.5 h -136.5 v 22.5 h -0.03 c 0.02,0.25 0.03,0.5 0.03,0.75 0,6.21 -5.37,11.25 -12,11.25 -6.63,0 -12,-5.04 -12,-11.25 0,-0.25 0.01,-0.5 0.03,-0.75 h -0.03 v -22.5 h -144 v 22.5 h -0.03 c 0.02,0.25 0.03,0.5 0.03,0.75 0,6.21 -5.37,11.25 -12,11.25 -6.63,0 -12,-5.04 -12,-11.25 0,-0.25 0.01,-0.5 0.03,-0.75 h -0.03 v -22.5 h -135 v 117 h 19.5 c 8.28,0 15,6.72 15,15 0,8.28 -6.72,15 -15,15 h -19.5 v 117 h 135 v -30 h 0.03 c 0.41,-5.86 5.61,-10.5 11.97,-10.5 6.36,0 11.56,4.64 11.97,10.5 h 0.03 v 30 h 144 v -30 h 0.03 c -0.02,-0.25 -0.03,-0.5 -0.03,-0.75 0,-6.21 5.37,-11.25 12,-11.25 6.63,0 12,5.04 12,11.25 0,0.25 -0.01,0.5 -0.03,0.75 h 0.03 v 30 H -168 v -30 h 0.03 c -0.02,-0.25 -0.03,-0.5 -0.03,-0.75 0,-6.21 5.37,-11.25 12,-11.25 6.63,0 12,5.04 12,11.25 0,0.25 -0.01,0.5 -0.03,0.75 h 0.03 v 30 H -34.5 V 0 Z"
             style="fill:#683192;fill-opacity:1;fill-rule:nonzero;stroke:#3a422b;stroke-opacity:1;opacity:0"
             id="path870"
             inkscape:connector-curvature="0" /></g><g
           id="g872"
           transform="translate(182.75,298.5)"><path
             d="m 0,0 v -99 h -105 c -16.5,0 -30,13.5 -30,30 V 0 Z"
             style="fill:#583175;fill-opacity:1;fill-rule:nonzero;stroke:none;opacity:0.00000001"
             id="path874"
             inkscape:connector-curvature="0" /></g><path
           d="m 350.75,199.5 h -144 v 99 h 144 z"
           style="fill:#6b3192;fill-opacity:1;fill-rule:nonzero;stroke:none;opacity:0.00000001"
           id="path876"
           inkscape:connector-curvature="0" /><path
           d="m 511.25,199.5 h -136.5 v 99 h 136.5 z"
           style="fill:#593192;fill-opacity:1;fill-rule:nonzero;stroke:#009c00;stroke-opacity:1;opacity:0.00000001"
           id="path878"
           inkscape:connector-curvature="0" /><g
           id="g880"
           transform="translate(535.2197,351)"><path
             d="M 0,0 C 0.021,-0.25 0.03,-0.5 0.03,-0.75 V 0 Z m -23.97,0 v -0.75 c 0,0.25 0.01,0.5 0.031,0.75 z m -328.5,212.25 v -0.75 h 0.031 c -0.021,0.25 -0.031,0.5 -0.031,0.75 m 23.97,-0.75 h 0.03 v 0.75 c 0,-0.25 -0.009,-0.5 -0.03,-0.75"
             style="fill:#0071bc;fill-opacity:1;fill-rule:nonzero;stroke:none"
             id="path882"
             inkscape:connector-curvature="0" /></g><g
           id="g884"
           transform="translate(47.75,622.5)"><path
             d="m 0,0 v 72 c 0,16.5 13.5,30 30,30 h 502.5 c 16.5,0 30,-13.5 30,-30 V 0 Z m 135,-324 v -99 H 30 c -16.5,0 -30,13.5 -30,30 v 69 z m 24,0 h 144 v -99 H 159 Z m 168,0 h 136.5 v -99 H 327 Z M 487.5,-30 H 597 V 81.51 c 0,31.89 -26.1,57.99 -57.99,57.99 H 21.99 C -9.9,139.5 -36,113.4 -36,81.51 v -484.02 c 0,-31.89 26.1,-57.99 57.99,-57.99 h 517.02 c 31.89,0 57.99,26.1 57.99,57.99 v 17.01 h -0.09 c 0.06,0.49 0.09,0.99 0.09,1.5 0,8.28 -7.72,15 -17.25,15 -9.53,0 -17.25,-6.72 -17.25,-15 0,-0.51 0.03,-1.01 0.09,-1.5 h -0.09 v -7.5 c 0,-16.5 -13.5,-30 -30,-30 h -45 v 99 H 561 v 0.02 c 0.25,-0.02 0.5,-0.02 0.75,-0.02 9.53,0 17.25,6.72 17.25,15 0,8.28 -7.72,15 -17.25,15 -0.25,0 -0.5,0 -0.75,-0.02 v 0.02 h -73.5 v 21.75 c 0,0.25 -0.01,0.5 -0.03,0.75 -0.41,5.86 -5.61,10.5 -11.97,10.5 -6.36,0 -11.56,-4.64 -11.97,-10.5 -0.02,-0.25 -0.03,-0.5 -0.03,-0.75 V -294 H 327 v 22.5 h -0.03 c 0.02,0.25 0.03,0.5 0.03,0.75 0,6.21 -5.37,11.25 -12,11.25 -6.63,0 -12,-5.04 -12,-11.25 0,-0.25 0.01,-0.5 0.03,-0.75 H 303 V -294 H 159 v 22.5 h -0.03 c 0.02,0.25 0.03,0.5 0.03,0.75 0,6.21 -5.37,11.25 -12,11.25 -6.63,0 -12,-5.04 -12,-11.25 0,-0.25 0.01,-0.5 0.03,-0.75 H 135 V -294 H 0 v 117 h 19.5 c 8.28,0 15,6.72 15,15 0,8.28 -6.72,15 -15,15 H 0 v 117 h 135 v -29.25 c 0,-0.25 0.01,-0.5 0.03,-0.75 0.41,-5.86 5.61,-10.5 11.97,-10.5 6.36,0 11.56,4.64 11.97,10.5 0.02,0.25 0.03,0.5 0.03,0.75 V -30 h 144 v -30 h 0.03 c -0.02,-0.25 -0.03,-0.5 -0.03,-0.75 0,-6.21 5.37,-11.25 12,-11.25 6.63,0 12,5.04 12,11.25 0,0.25 -0.01,0.5 -0.03,0.75 H 327 v 30 h 136.5 v -30 h 0.03 c -0.02,-0.25 -0.03,-0.5 -0.03,-0.75 0,-6.21 5.37,-11.25 12,-11.25 6.63,0 12,5.04 12,11.25 0,0.25 -0.01,0.5 -0.03,0.75 h 0.03 z"
             style="fill:#d1e6ea;fill-opacity:1;fill-rule:nonzero;stroke:none"
             id="path886"
             inkscape:connector-curvature="0" /></g></g></g><text
       transform="matrix(0.89204044,0,0,-1,77.6416,378.6152)"
       style="font-style:italic;font-variant:normal;font-weight:normal;font-stretch:normal;font-size:225px;font-family:Verdana;-inkscape-font-specification:Verdana-Italic;writing-mode:lr-tb;fill:#ffa553;fill-opacity:1;fill-rule:nonzero;stroke:none;"
       id="text890"><tspan
         x="0 142.2 275.17499 409.27499 551.70001"
         y="0"
         sodipodi:role="line"
         id="tspan888">Event</tspan></text>
<text
       transform="matrix(0.89204044,0,0,-1,648.8597,378.6152)"
       style="font-style:italic;font-variant:normal;font-weight:bold;font-stretch:normal;font-size:225px;font-family:Verdana;-inkscape-font-specification:Verdana-BoldItalic;writing-mode:lr-tb;fill:#d1e6ea;fill-opacity:1;fill-rule:nonzero;stroke:none;"
       id="text894"><tspan
         x="0 153.675 313.875 447.29999 607.5 719.32501"
         y="0"
         sodipodi:role="line"
         id="tspan892">Ensure</tspan></text>
</g></svg>